<mxfile host="app.diagrams.net" agent="Mozilla/5.0 (Windows NT 10.0; Win64; x64) AppleWebKit/537.36 (KHTML, like Gecko) Chrome/129.0.0.0 Safari/537.36" version="24.7.17">
  <diagram name="Page-1" id="qT1KsA2ClLIKK8IvK9sN">
    <mxGraphModel dx="1588" dy="2008" grid="1" gridSize="10" guides="1" tooltips="1" connect="1" arrows="1" fold="1" page="1" pageScale="1" pageWidth="850" pageHeight="1100" math="0" shadow="0">
      <root>
        <mxCell id="0" />
        <mxCell id="1" parent="0" />
        <mxCell id="9r9jPYxPQO7Tfo1PjA_W-1" value="" style="ellipse;whiteSpace=wrap;html=1;aspect=fixed;" parent="1" vertex="1">
          <mxGeometry x="190" y="220" width="60" height="60" as="geometry" />
        </mxCell>
        <mxCell id="9r9jPYxPQO7Tfo1PjA_W-2" value="" style="endArrow=none;html=1;rounded=0;" parent="1" edge="1">
          <mxGeometry width="50" height="50" relative="1" as="geometry">
            <mxPoint x="219.5" y="360" as="sourcePoint" />
            <mxPoint x="219.5" y="280" as="targetPoint" />
            <Array as="points" />
          </mxGeometry>
        </mxCell>
        <mxCell id="9r9jPYxPQO7Tfo1PjA_W-3" value="" style="endArrow=none;html=1;rounded=0;" parent="1" edge="1">
          <mxGeometry width="50" height="50" relative="1" as="geometry">
            <mxPoint x="220" y="320" as="sourcePoint" />
            <mxPoint x="180" y="280" as="targetPoint" />
          </mxGeometry>
        </mxCell>
        <mxCell id="9r9jPYxPQO7Tfo1PjA_W-4" value="" style="endArrow=none;html=1;rounded=0;" parent="1" edge="1">
          <mxGeometry width="50" height="50" relative="1" as="geometry">
            <mxPoint x="220" y="320" as="sourcePoint" />
            <mxPoint x="260" y="280" as="targetPoint" />
            <Array as="points">
              <mxPoint x="250" y="290" />
            </Array>
          </mxGeometry>
        </mxCell>
        <mxCell id="9r9jPYxPQO7Tfo1PjA_W-5" value="" style="endArrow=none;html=1;rounded=0;" parent="1" edge="1">
          <mxGeometry width="50" height="50" relative="1" as="geometry">
            <mxPoint x="220" y="360" as="sourcePoint" />
            <mxPoint x="180" y="400" as="targetPoint" />
          </mxGeometry>
        </mxCell>
        <mxCell id="9r9jPYxPQO7Tfo1PjA_W-6" value="" style="endArrow=none;html=1;rounded=0;" parent="1" edge="1">
          <mxGeometry width="50" height="50" relative="1" as="geometry">
            <mxPoint x="220" y="360" as="sourcePoint" />
            <mxPoint x="260" y="400" as="targetPoint" />
          </mxGeometry>
        </mxCell>
        <mxCell id="9r9jPYxPQO7Tfo1PjA_W-7" value="&lt;b&gt;Manage Categories&lt;/b&gt;" style="ellipse;whiteSpace=wrap;html=1;" parent="1" vertex="1">
          <mxGeometry x="510" y="40" width="120" height="80" as="geometry" />
        </mxCell>
        <mxCell id="9r9jPYxPQO7Tfo1PjA_W-9" value="&lt;b&gt;Admin&lt;/b&gt;&lt;div&gt;&lt;b&gt;Logout&lt;/b&gt;&lt;/div&gt;" style="ellipse;whiteSpace=wrap;html=1;" parent="1" vertex="1">
          <mxGeometry x="520" y="600" width="120" height="80" as="geometry" />
        </mxCell>
        <mxCell id="9r9jPYxPQO7Tfo1PjA_W-10" value="&lt;b&gt;Change Password&lt;/b&gt;" style="ellipse;whiteSpace=wrap;html=1;" parent="1" vertex="1">
          <mxGeometry x="510" y="510" width="120" height="80" as="geometry" />
        </mxCell>
        <mxCell id="9r9jPYxPQO7Tfo1PjA_W-11" value="&lt;b&gt;View Products&amp;nbsp;&lt;/b&gt;&lt;div&gt;&lt;b&gt;List&lt;/b&gt;&lt;/div&gt;" style="ellipse;whiteSpace=wrap;html=1;" parent="1" vertex="1">
          <mxGeometry x="510" y="420" width="120" height="80" as="geometry" />
        </mxCell>
        <mxCell id="9r9jPYxPQO7Tfo1PjA_W-12" value="&lt;b&gt;Admin Login&lt;/b&gt;" style="ellipse;whiteSpace=wrap;html=1;" parent="1" vertex="1">
          <mxGeometry x="500" y="-60" width="120" height="80" as="geometry" />
        </mxCell>
        <mxCell id="9r9jPYxPQO7Tfo1PjA_W-13" value="&lt;b&gt;Manage&amp;nbsp;&lt;/b&gt;&lt;div&gt;&lt;b&gt;Payments&lt;/b&gt;&lt;/div&gt;" style="ellipse;whiteSpace=wrap;html=1;" parent="1" vertex="1">
          <mxGeometry x="510" y="320" width="120" height="80" as="geometry" />
        </mxCell>
        <mxCell id="9r9jPYxPQO7Tfo1PjA_W-14" value="&lt;b&gt;Manage&amp;nbsp;&lt;/b&gt;&lt;div&gt;&lt;b&gt;Orders&lt;/b&gt;&lt;/div&gt;" style="ellipse;whiteSpace=wrap;html=1;" parent="1" vertex="1">
          <mxGeometry x="510" y="230" width="120" height="80" as="geometry" />
        </mxCell>
        <mxCell id="9r9jPYxPQO7Tfo1PjA_W-15" value="&lt;b&gt;Manage&amp;nbsp;&lt;/b&gt;&lt;div&gt;&lt;b&gt;Products&lt;/b&gt;&lt;/div&gt;" style="ellipse;whiteSpace=wrap;html=1;" parent="1" vertex="1">
          <mxGeometry x="510" y="130" width="120" height="80" as="geometry" />
        </mxCell>
        <mxCell id="9r9jPYxPQO7Tfo1PjA_W-17" value="" style="endArrow=classic;html=1;rounded=0;entryX=0.047;entryY=0.733;entryDx=0;entryDy=0;entryPerimeter=0;" parent="1" target="9r9jPYxPQO7Tfo1PjA_W-12" edge="1">
          <mxGeometry width="50" height="50" relative="1" as="geometry">
            <mxPoint x="280" y="340" as="sourcePoint" />
            <mxPoint x="430" y="120" as="targetPoint" />
          </mxGeometry>
        </mxCell>
        <mxCell id="9r9jPYxPQO7Tfo1PjA_W-18" value="" style="endArrow=classic;html=1;rounded=0;entryX=0.014;entryY=0.642;entryDx=0;entryDy=0;entryPerimeter=0;" parent="1" target="9r9jPYxPQO7Tfo1PjA_W-7" edge="1">
          <mxGeometry width="50" height="50" relative="1" as="geometry">
            <mxPoint x="280" y="340" as="sourcePoint" />
            <mxPoint x="430" y="120" as="targetPoint" />
          </mxGeometry>
        </mxCell>
        <mxCell id="9r9jPYxPQO7Tfo1PjA_W-19" value="" style="endArrow=classic;html=1;rounded=0;entryX=0;entryY=0.5;entryDx=0;entryDy=0;" parent="1" target="9r9jPYxPQO7Tfo1PjA_W-15" edge="1">
          <mxGeometry width="50" height="50" relative="1" as="geometry">
            <mxPoint x="280" y="340" as="sourcePoint" />
            <mxPoint x="430" y="110" as="targetPoint" />
          </mxGeometry>
        </mxCell>
        <mxCell id="9r9jPYxPQO7Tfo1PjA_W-20" value="" style="endArrow=classic;html=1;rounded=0;entryX=0;entryY=0.375;entryDx=0;entryDy=0;entryPerimeter=0;" parent="1" target="9r9jPYxPQO7Tfo1PjA_W-10" edge="1">
          <mxGeometry width="50" height="50" relative="1" as="geometry">
            <mxPoint x="280" y="340" as="sourcePoint" />
            <mxPoint x="500" y="520" as="targetPoint" />
          </mxGeometry>
        </mxCell>
        <mxCell id="9r9jPYxPQO7Tfo1PjA_W-21" value="" style="endArrow=classic;html=1;rounded=0;entryX=0;entryY=0.375;entryDx=0;entryDy=0;entryPerimeter=0;" parent="1" target="9r9jPYxPQO7Tfo1PjA_W-11" edge="1">
          <mxGeometry width="50" height="50" relative="1" as="geometry">
            <mxPoint x="280" y="340" as="sourcePoint" />
            <mxPoint x="490" y="440" as="targetPoint" />
          </mxGeometry>
        </mxCell>
        <mxCell id="9r9jPYxPQO7Tfo1PjA_W-22" value="" style="endArrow=classic;html=1;rounded=0;entryX=0;entryY=0.5;entryDx=0;entryDy=0;" parent="1" target="9r9jPYxPQO7Tfo1PjA_W-14" edge="1">
          <mxGeometry width="50" height="50" relative="1" as="geometry">
            <mxPoint x="280" y="340" as="sourcePoint" />
            <mxPoint x="490" y="320" as="targetPoint" />
          </mxGeometry>
        </mxCell>
        <mxCell id="9r9jPYxPQO7Tfo1PjA_W-23" value="" style="endArrow=classic;html=1;rounded=0;" parent="1" edge="1">
          <mxGeometry width="50" height="50" relative="1" as="geometry">
            <mxPoint x="280" y="340" as="sourcePoint" />
            <mxPoint x="510" y="360" as="targetPoint" />
          </mxGeometry>
        </mxCell>
        <mxCell id="9r9jPYxPQO7Tfo1PjA_W-25" value="" style="endArrow=classic;html=1;rounded=0;entryX=0;entryY=0.375;entryDx=0;entryDy=0;entryPerimeter=0;" parent="1" target="9r9jPYxPQO7Tfo1PjA_W-9" edge="1">
          <mxGeometry width="50" height="50" relative="1" as="geometry">
            <mxPoint x="280" y="340" as="sourcePoint" />
            <mxPoint x="440" y="570" as="targetPoint" />
          </mxGeometry>
        </mxCell>
        <mxCell id="9r9jPYxPQO7Tfo1PjA_W-26" value="&lt;b&gt;Admin&lt;/b&gt;" style="text;html=1;align=center;verticalAlign=middle;resizable=0;points=[];autosize=1;strokeColor=none;fillColor=none;" parent="1" vertex="1">
          <mxGeometry x="190" y="420" width="60" height="30" as="geometry" />
        </mxCell>
        <mxCell id="9r9jPYxPQO7Tfo1PjA_W-27" value="&lt;b&gt;UseCase Diagram Of Admin&lt;/b&gt;" style="text;html=1;align=center;verticalAlign=middle;resizable=0;points=[];autosize=1;strokeColor=none;fillColor=none;" parent="1" vertex="1">
          <mxGeometry x="480" y="-120" width="180" height="30" as="geometry" />
        </mxCell>
      </root>
    </mxGraphModel>
  </diagram>
</mxfile>
